Coordinates
version=1
nRows=15
nColumns=34
inDegrees=yes

Units are S.I. units (second, meters, Newtons, ...)
If the header above contains a line with 'inDegrees', this indicates whether rotational values are in degrees (yes) or radians (no).

endheader
time	pelvis_tilt	pelvis_list	pelvis_rotation	pelvis_tx	pelvis_ty	pelvis_tz	hip_flexion_r	hip_adduction_r	hip_rotation_r	knee_angle_r	ankle_angle_r	subtalar_angle_r	mtp_angle_r	hip_flexion_l	hip_adduction_l	hip_rotation_l	knee_angle_l	ankle_angle_l	subtalar_angle_l	mtp_angle_l	lumbar_extension	lumbar_bending	lumbar_rotation	arm_flex_r	arm_add_r	arm_rot_r	elbow_flex_r	pro_sup_r	arm_flex_l	arm_add_l	arm_rot_l	elbow_flex_l	pro_sup_l
      2.35000000	      0.95971421	     -7.06559276	      1.60129810	     -0.34307433	      0.90533637	      0.25746221	     16.94647539	     11.68303777	     -2.00645944	    -20.67261168	      0.79581926	     -7.68345805	      5.95736768	     -0.22376333	     -7.61849942	      1.58145870	    -54.38769174	    -13.74240264	     -2.41802473	     27.72850300	     -3.87377876	     10.25299403	     -5.57250901	     -8.90914912	    -17.56679479	      7.40310939	     22.53402696	     90.00000000	     -4.63824374	    -15.13400887	      8.93893094	     32.34885126	     90.00000000
      2.36000000	      0.86599193	     -7.09670040	      2.01267752	     -0.33102444	      0.90717241	      0.25773424	     15.87004071	     11.63555143	     -2.78665541	    -20.03990278	      1.42499759	     -7.06284730	      6.08717479	      2.12192132	     -7.35848862	      2.49759387	    -56.53469338	    -11.84534266	     -3.24756570	     27.97166411	     -3.80632736	     10.29466505	     -5.60466529	     -8.61965464	    -17.73481032	      7.62767757	     23.20900863	     90.00000000	     -4.49105311	    -15.00419039	      9.43138121	     31.51284536	     90.00000000
      2.37000000	      0.76378397	     -6.90704000	      2.30426076	     -0.31900664	      0.90918072	      0.25811969	     14.72875561	     11.40463664	     -3.33703753	    -19.33367862	      2.15124912	     -6.29597294	      6.17467564	      4.33914377	     -6.78857722	      3.33102563	    -58.09216908	    -10.33597880	     -3.75733722	     28.22011789	     -3.78713153	     10.06861863	     -5.45672750	     -8.36889212	    -17.88586994	      7.96009880	     23.85960512	     90.00000000	     -4.38525614	    -14.94483644	     10.13693919	     30.80002526	     90.00000000
      2.38000000	      0.77547214	     -6.68098245	      2.55979444	     -0.30693998	      0.91134620	      0.25856095	     13.44640056	     11.16755418	     -3.78913682	    -18.61497582	      2.83868823	     -5.50142242	      6.18903640	      6.34803326	     -6.19134259	      3.98918125	    -59.23549554	     -8.86293177	     -4.14559544	     28.44609098	     -3.90162189	      9.79742941	     -5.23589926	     -8.15886514	    -18.05664219	      8.25869075	     24.63769231	     90.00000000	     -4.32621486	    -14.91543245	     10.67557569	     30.23449431	     90.00000000
      2.39000000	      0.80456874	     -6.33760992	      2.76068612	     -0.29475540	      0.91357019	      0.25896151	     12.10960268	     10.82294962	     -4.20636428	    -17.87474496	      3.54358575	     -4.67169804	      6.12825916	      8.20754591	     -5.45133285	      4.51711866	    -59.92741774	     -7.32717032	     -4.40378211	     28.65463701	     -4.01992077	      9.39702199	     -4.95058952	     -7.94924194	    -18.22671717	      8.53287270	     25.32145005	     90.00000000	     -4.32798937	    -14.89304488	     11.15828196	     29.74510126	     90.00000000
      2.40000000	      0.87369247	     -5.96101429	      2.88268587	     -0.28247399	      0.91585057	      0.25943270	     10.70872286	     10.45530737	     -4.53330094	    -17.12461615	      4.21911786	     -3.69431048	      5.89876996	      9.88206763	     -4.71200485	      4.88370465	    -60.19000894	     -5.49532556	     -4.84790895	     28.70949163	     -4.18448972	      8.97402474	     -4.57395106	     -7.75865172	    -18.42916615	      8.87565641	     26.10501313	     90.00000000	     -4.33280842	    -14.86368649	     11.67465567	     29.25937526	     90.00000000
      2.41000000	      0.92324551	     -5.51768589	      2.99203182	     -0.27021014	      0.91804921	      0.25989785	      9.29145327	     10.02691288	     -4.74989515	    -16.29798132	      4.95686787	     -2.56649787	      5.16849960	     11.50559629	     -3.99145596	      4.98763485	    -60.10716072	     -3.68049965	     -4.92558715	     28.31283307	     -4.32439200	      8.47097831	     -4.28863763	     -7.42916297	    -18.60085879	      9.22079707	     26.68851554	     90.00000000	     -4.34548162	    -14.84542686	     12.26449726	     28.51259359	     90.00000000
      2.42000000	      0.97020388	     -5.10551588	      2.93992864	     -0.25801377	      0.92001435	      0.26074573	      7.83608444	      9.72127723	     -4.48406527	    -15.37354973	      5.43062092	     -2.24210000	      4.66546725	     13.01532414	     -3.37958629	      4.88578744	    -59.67709987	     -2.17290284	     -5.16441785	     28.08087789	     -4.49774654	      7.95369639	     -3.84787806	     -7.18432202	    -18.76273974	      9.27217930	     27.52640249	     90.00000000	     -4.53294552	    -14.83213814	     12.26677261	     28.23954108	     90.00000000
      2.43000000	      0.85764597	     -4.67011469	      2.79103997	     -0.24590299	      0.92154964	      0.26187955	      6.61203426	      9.40767858	     -4.11600166	    -14.53191382	      5.81540647	     -2.03445927	      4.50921596	     14.59674337	     -2.85444641	      4.53627926	    -58.88926001	     -0.67351542	     -5.64746637	     28.12919385	     -4.50786412	      7.40900490	     -3.37619135	     -6.91845352	    -18.90773274	      9.26526085	     28.25618987	     90.00000000	     -4.84400314	    -14.86587541	     12.15468244	     28.06181677	     90.00000000
      2.44000000	      0.79906299	     -4.17955202	      2.61130562	     -0.23385440	      0.92297938	      0.26291783	      5.33587447	      9.03999416	     -3.53042027	    -13.68966928	      6.13530095	     -1.93358959	      4.37707439	     16.01221343	     -2.29681618	      4.09300346	    -57.72497160	      0.14210130	     -6.04397950	     28.07328503	     -4.58342468	      6.79928939	     -2.92325309	     -6.60675220	    -19.05955287	      9.24321954	     29.01556038	     90.00000000	     -5.09928543	    -14.86731234	     12.01784601	     27.80040218	     90.00000000
      2.45000000	      0.82108447	     -3.71882103	      2.31042527	     -0.22169452	      0.92421909	      0.26401443	      4.00655666	      8.72804615	     -2.75668722	    -12.93039280	      6.51275195	     -2.18576765	      4.17913665	     17.19560848	     -1.83579684	      3.50492830	    -56.23612689	      0.85404657	     -6.78437447	     27.85357185	     -4.72677329	      6.22680720	     -2.30808038	     -6.36161943	    -19.27962212	      9.32380232	     29.87728510	     90.00000000	     -5.25556037	    -14.81395156	     11.86627232	     27.26770285	     90.00000000
      2.46000000	      0.74776007	     -3.31585595	      1.98183680	     -0.20965037	      0.92507650	      0.26529717	      2.74651795	      8.48152273	     -1.91312714	    -12.06024587	      6.75475937	     -2.65143081	      3.80783411	     18.42010486	     -1.50025564	      2.84636592	    -54.49304457	      1.27480128	     -7.60518115	     27.32035903	     -4.78396599	      5.71370594	     -1.68098478	     -6.08245531	    -19.49181598	      9.29318865	     30.68992314	     90.00000000	     -5.41104857	    -14.79434801	     11.78095647	     26.72559199	     90.00000000
      2.47000000	      0.61494745	     -3.00052553	      1.80914409	     -0.19764540	      0.92536062	      0.26625528	      1.62535639	      8.25523300	     -1.61869620	    -11.28347435	      7.09771822	     -2.59646653	      3.75171575	     19.67914826	     -1.18944507	      2.41358665	    -52.58144239	      1.99180469	     -7.88844978	     27.18251854	     -4.75679959	      5.31358588	     -1.28256066	     -5.73743730	    -19.70855124	      9.20270651	     31.42184377	     90.00000000	     -5.75430660	    -14.79647414	     11.69925257	     26.57753031	     90.00000000
      2.48000000	      0.61324598	     -2.60967731	      1.55082037	     -0.18562618	      0.92560808	      0.26732102	      0.33838325	      7.94588897	     -1.12879597	    -10.50304796	      7.45942178	     -2.62300248	      3.65394828	     20.63295549	     -0.84464486	      1.86276864	    -50.32438591	      2.46405914	     -8.53578832	     26.81253174	     -4.85962299	      4.82470009	     -0.76648634	     -5.38782875	    -19.92501932	      9.18671860	     32.17351226	     90.00000000	     -5.90557035	    -14.76287894	     11.51999319	     26.07347430	     90.00000000
      2.49000000	      0.81858852	     -2.27961800	      1.28901303	     -0.17350014	      0.92592883	      0.26846826	     -1.24011010	      7.68666331	     -0.74248528	     -9.58254061	      7.91720221	     -2.63608597	      3.40984080	     21.24165603	     -0.59663273	      1.29790008	    -47.77517463	      2.65456113	     -9.06238132	     26.11113782	     -5.21507730	      4.41573109	     -0.21208805	     -5.04469443	    -20.15341514	      9.12806224	     32.94725045	     90.00000000	     -5.95632141	    -14.71432366	     11.38132014	     25.35923283	     90.00000000
